<?xml version="1.0" encoding="UTF-8" standalone="no"?>
<!DOCTYPE svg PUBLIC "-//W3C//DTD SVG 1.1//EN" "http://www.w3.org/Graphics/SVG/1.1/DTD/svg11.dtd">
<svg width="100%" height="100%" viewBox="0 0 600 600" version="1.1" xmlns="http://www.w3.org/2000/svg" xmlns:xlink="http://www.w3.org/1999/xlink" xml:space="preserve" xmlns:serif="http://www.serif.com/" style="fill-rule:evenodd;clip-rule:evenodd;stroke-linejoin:round;stroke-miterlimit:2;">
    <g transform="matrix(1,0,0,1,-200,-200)">
        <path d="M400,687.5C421.054,687.5 436.613,676.538 449.772,660.748C464.834,642.674 476.77,618.508 488.82,594.41C501.77,568.508 514.834,542.674 531.022,523.248C538.822,513.888 547.336,505.955 556.818,499.958C547.406,493.972 538.937,486.072 531.167,476.757C514.966,457.336 501.843,431.507 488.831,405.612C476.718,381.507 464.716,357.336 449.636,339.257C436.467,323.47 420.944,312.5 400,312.5L400,370C400,377.956 396.839,385.587 391.213,391.213C385.587,396.839 377.956,400 370,400L230,400C222.044,400 214.413,396.839 208.787,391.213C203.161,385.587 200,377.956 200,370L200,230C200,222.044 203.161,214.413 208.787,208.787C214.413,203.161 222.044,200 230,200L370,200C377.956,200 385.587,203.161 391.213,208.787C396.839,214.413 400,222.044 400,230L400,287.5C428.808,287.5 450.72,301.529 468.833,323.243C485.034,342.664 498.157,368.493 511.169,394.388C523.282,418.493 535.284,442.664 550.364,460.743C563.533,476.53 579.056,487.5 600,487.5L600,430C600,422.044 603.161,414.413 608.787,408.787C614.413,403.161 622.044,400 630,400L770,400C777.956,400 785.587,403.161 791.213,408.787C796.839,414.413 800,422.044 800,430L800,570C800,577.956 796.839,585.587 791.213,591.213C785.587,596.839 777.956,600 770,600L630,600C622.044,600 614.413,596.839 608.787,591.213C603.161,585.587 600,577.956 600,570L600,512.5C578.946,512.5 563.387,523.462 550.228,539.252C535.166,557.326 523.23,581.492 511.18,605.59C498.23,631.492 485.166,657.326 468.978,676.752C450.886,698.463 428.947,712.5 400,712.5L400,770C400,777.956 396.839,785.587 391.213,791.213C385.587,796.839 377.956,800 370,800L230,800C222.044,800 214.413,796.839 208.787,791.213C203.161,785.587 200,777.956 200,770L200,630C200,622.044 203.161,614.413 208.787,608.787C214.413,603.161 222.044,600 230,600L370,600C377.956,600 385.587,603.161 391.213,608.787C396.839,614.413 400,622.044 400,630L400,687.5Z" style="fill:rgb(235,235,235);"/>
    </g>
</svg>
